<?xml version="1.0" standalone="no"?>
<!DOCTYPE svg PUBLIC "-//W3C//DTD SVG 20010904//EN"
 "http://www.w3.org/TR/2001/REC-SVG-20010904/DTD/svg10.dtd">
<svg version="1.0" xmlns="http://www.w3.org/2000/svg"
 width="225.000000pt" height="225.000000pt" viewBox="0 0 225.000000 225.000000"
 preserveAspectRatio="xMidYMid meet">

<g transform="translate(0.000000,225.000000) scale(0.100000,-0.100000)"
fill="#000000" stroke="none">
<path d="M213 2241 c-77 -19 -144 -76 -189 -161 -18 -33 -19 -76 -19 -955 l0
-920 30 -53 c32 -59 66 -91 129 -125 l41 -22 920 0 920 0 53 30 c59 32 91 66
125 129 l22 41 0 920 0 920 -22 41 c-34 63 -66 97 -125 129 l-53 30 -900 2
c-495 0 -914 -2 -932 -6z m778 -593 c33 -28 40 -57 104 -423 36 -209 69 -388
73 -399 17 -42 226 299 266 433 9 30 16 80 16 111 0 66 -14 89 -91 150 l-49
39 32 32 c47 46 103 69 173 69 70 0 114 -22 145 -72 57 -93 -11 -300 -181
-555 -77 -115 -299 -413 -321 -430 -7 -6 -58 -14 -113 -17 l-101 -7 -79 450
-80 451 -108 0 -108 0 3 47 3 46 145 43 c150 44 243 55 271 32z"/>
</g>
</svg>
